<?xml version='1.0' encoding='utf-8'?>
<svg xmlns="http://www.w3.org/2000/svg" width="71" height="76" viewBox="0 0 71 76" fill="none" filter="url(#shadow)">
<defs><filter id="shadow"><feDropShadow dx="1" dy="1" stdDeviation="2" flood-color="#000000" flood-opacity="0.4" /></filter></defs><path d="M38.8424 0.5H54.6495C54.9256 0.5 55.1495 0.723858 55.1495 1V38.944C55.1495 39.3112 54.7668 39.5531 54.4351 39.3957L23.6466 24.7845C23.1649 24.5559 23.3278 23.8328 23.861 23.8328H36.8424C37.6709 23.8328 38.3424 23.1612 38.3424 22.3328V1C38.3424 0.723857 38.5663 0.5 38.8424 0.5Z" fill="#00A0FF" stroke="#00A0FF" />
<path d="M16.927 42.9814H2C1.44772 42.9814 1 43.4292 1 43.9814V56.3352C1 56.4378 1.0164 56.5421 1.04795 56.6397C9.04087 81.353 47.931 81.0097 55.9757 55.0218C56.141 54.4877 56.7034 54.1623 57.2401 54.3188L59.3438 54.9324C60.5228 55.2762 61.1639 53.6032 60.0571 53.0711L40.4337 43.637C39.7875 43.3263 39.0316 43.8009 38.9735 44.5155C36.9839 68.9657 15.3884 60.0297 17.9436 44.2286C18.0468 43.591 17.5729 42.9814 16.927 42.9814Z" fill="#00A0FF" stroke="#00A0FF" />
<path d="M1 33.1572L16.9625 40.264" stroke="#00A0FF" stroke-width="2" stroke-linecap="round" />
<path d="M28.3962 48.466L36.5076 52.0773" stroke="#00A0FF" stroke-width="2" stroke-linecap="round" />
<path d="M53.7377 32.0821L64.1717 36.511" stroke="#00A0FF" stroke-width="2" stroke-linecap="round" />
<path d="M45.2107 28.2451L55.5658 32.8554" stroke="white" stroke-width="2" stroke-linecap="round" />
<path d="M37.842 52.8058L53.8044 59.9126" stroke="#FEFEFE" stroke-width="2" stroke-linecap="round" />
</svg>