<svg width="454" height="412" viewBox="0 0 454 412" fill="none" xmlns="http://www.w3.org/2000/svg">
<path d="M452.685 172.391C444.717 236.813 403.084 293.925 349.788 331.058C345.462 334.074 341.03 336.968 336.49 339.739C335.921 340.087 335.352 340.435 334.783 340.776C303.113 359.758 266.83 371.917 230.38 368.125C200.765 365.048 171.687 349.31 154.332 325.801C154.004 325.36 153.676 324.905 153.361 324.457C146.291 314.662 141.497 303.416 139.327 291.537C136.207 273.953 138.631 254.51 128.936 239.508C116.362 220.045 89.4321 216.875 66.2589 217.604C44.5989 218.28 22.9724 220.621 1.33911 221.838C0.897201 221.865 0.4486 221.885 0 221.911V15.1758C0.0048497 11.1524 1.607 7.29519 4.45503 4.45023C7.30306 1.60527 11.1644 0.00484447 15.1922 0H109.418C113.978 0.59526 117.205 9.73149 121.751 10.0325C123.72 10.1662 125.686 10.2732 127.65 10.3535C137.981 10.7816 148.299 10.601 158.604 10.0325C164.623 9.70474 171.981 0.548442 177.994 0H351.984C353.283 0.428052 354.568 0.876169 355.854 1.33766C361.393 3.33162 366.804 5.66355 372.057 8.32026C430.014 37.6753 460.652 107.969 452.685 172.391Z" fill="#171717"/>
<path d="M379.898 86.3729C352.921 111.454 317.187 127.546 280.482 131.405C276.88 131.787 273.269 132.047 269.649 132.188C268.846 132.221 268.042 132.241 267.232 132.261C265.92 132.295 264.601 132.308 263.288 132.308C261.715 132.308 260.141 132.286 258.568 132.241C249.46 131.976 240.388 130.985 231.438 129.278C231.109 129.212 230.788 129.151 230.46 129.084C229.047 128.81 227.639 128.516 226.235 128.202C223.544 127.606 220.865 126.946 218.201 126.222C217.337 125.988 216.473 125.747 215.609 125.493C214.371 125.138 213.139 124.764 211.907 124.383C211.445 124.235 210.983 124.095 210.521 123.941C210.052 123.794 209.583 123.64 209.115 123.48C206.256 122.543 203.421 121.527 200.611 120.43C184.609 114.254 169.628 105.706 156.173 95.0744C154.312 93.5963 152.424 92.0446 150.602 90.5397C140.814 82.4736 130.69 74.1333 118.35 72.3141C105.026 70.3544 92.2242 76.414 79.8509 82.273C75.6528 84.2594 71.3141 86.3127 67.0222 88.0316C46.0713 96.2753 22.9817 97.378 1.33911 91.1684C0.890505 91.048 0.441905 90.9143 0 90.7805V89.3826C0.441905 89.5164 0.890505 89.6502 1.33911 89.7773C22.8003 96.0182 45.7283 94.9666 66.5267 86.7876C70.7784 85.0887 75.1037 83.0421 79.2817 81.0624C91.8358 75.1165 104.818 68.9699 118.544 70.9898C131.252 72.8625 141.523 81.3232 151.453 89.5097C153.274 91.0079 155.155 92.5596 157.003 94.031C170.369 104.595 185.253 113.084 201.154 119.213H201.16C203.852 120.256 206.577 121.239 209.316 122.149C209.711 122.276 210.106 122.403 210.501 122.537C210.943 122.677 211.391 122.818 211.833 122.958C212.965 123.319 214.098 123.662 215.234 123.988C216.346 124.322 217.464 124.639 218.589 124.938H218.596C221.475 125.72 224.372 126.427 227.286 127.058C228.605 127.352 229.924 127.62 231.257 127.874C231.545 127.934 231.839 127.988 232.134 128.041C240.72 129.66 249.419 130.612 258.153 130.89H258.159C261.193 130.984 264.221 130.995 267.245 130.924C268.035 130.904 268.819 130.877 269.602 130.85C273.024 130.716 276.44 130.476 279.853 130.128H279.86C316.451 126.389 352.098 110.391 378.987 85.3897C379.118 85.27 379.29 85.2068 379.468 85.214C379.645 85.2212 379.812 85.2983 379.932 85.4284C380.053 85.5584 380.117 85.7308 380.11 85.9078C380.104 86.0848 380.027 86.2521 379.898 86.3729Z" fill="#6C63FF"/>
<path d="M0.20756 60.8235C0.166346 60.9946 0.0961497 61.1575 0 61.305V59.439C0.244491 59.8567 0.318805 60.3524 0.20756 60.8235Z" fill="#FF6584"/>
<path d="M5.49084 67.9077C5.62518 66.7067 5.05606 65.6574 4.21967 65.564C3.38328 65.4707 2.59635 66.3686 2.462 67.5696C2.32766 68.7706 2.89678 69.8199 3.73317 69.9133C4.56956 70.0067 5.35649 69.1087 5.49084 67.9077Z" fill="#E6E6E6"/>
<path d="M7.35411 82.0923C7.48846 80.8913 6.91934 79.842 6.08295 79.7486C5.24656 79.6553 4.45962 80.5532 4.32528 81.7542C4.19094 82.9552 4.76006 84.0045 5.59645 84.0979C6.43284 84.1912 7.21977 83.2933 7.35411 82.0923Z" fill="#3F3D56"/>
<path d="M338.098 195.209C338.425 193.92 337.186 192.493 335.33 192.024C333.475 191.554 331.705 192.218 331.378 193.508C331.051 194.797 332.29 196.223 334.146 196.693C336.001 197.163 337.771 196.498 338.098 195.209Z" fill="white"/>
<path d="M315.438 195.063C315.765 193.774 314.526 192.348 312.67 191.878C310.814 191.408 309.045 192.073 308.718 193.362C308.391 194.651 309.63 196.078 311.485 196.547C313.341 197.017 315.11 196.353 315.438 195.063Z" fill="#3F3D56"/>
<path d="M342.35 213.989C342.677 212.699 341.438 211.273 339.583 210.803C337.727 210.334 335.958 210.998 335.63 212.288C335.303 213.577 336.542 215.003 338.398 215.473C340.253 215.943 342.023 215.278 342.35 213.989Z" fill="#FF6584"/>
<path d="M347.632 221.07C347.767 219.869 347.197 218.82 346.361 218.726C345.525 218.633 344.738 219.531 344.603 220.732C344.469 221.933 345.038 222.982 345.875 223.076C346.711 223.169 347.498 222.271 347.632 221.07Z" fill="#E6E6E6"/>
<path d="M349.496 235.255C349.63 234.054 349.061 233.004 348.224 232.911C347.388 232.818 346.601 233.715 346.467 234.916C346.332 236.117 346.901 237.167 347.738 237.26C348.574 237.353 349.361 236.456 349.496 235.255Z" fill="#3F3D56"/>
<path d="M326.329 208.223C326.463 207.022 325.894 205.973 325.058 205.879C324.221 205.786 323.434 206.684 323.3 207.885C323.166 209.086 323.735 210.135 324.571 210.229C325.408 210.322 326.195 209.424 326.329 208.223Z" fill="#E6E6E6"/>
<path d="M337.733 203.944C337.867 202.743 337.298 201.693 336.461 201.6C335.625 201.507 334.838 202.405 334.704 203.606C334.569 204.807 335.138 205.856 335.975 205.949C336.811 206.043 337.598 205.145 337.733 203.944Z" fill="#FF6584"/>
<path d="M323.684 192.382C323.818 191.181 323.249 190.132 322.413 190.038C321.576 189.945 320.789 190.843 320.655 192.044C320.521 193.245 321.09 194.294 321.926 194.388C322.762 194.481 323.549 193.583 323.684 192.382Z" fill="#3F3D56"/>
<path d="M33.4512 36.696C33.7783 35.4066 32.5393 33.9805 30.6837 33.5108C28.8281 33.041 27.0587 33.7055 26.7316 34.995C26.4045 36.2844 27.6435 37.7105 29.4991 38.1802C31.3547 38.65 33.1241 37.9855 33.4512 36.696Z" fill="white"/>
<path d="M10.791 36.55C11.1182 35.2606 9.87913 33.8345 8.02356 33.3648C6.16799 32.895 4.39857 33.5595 4.07144 34.849C3.74431 36.1384 4.98336 37.5645 6.83893 38.0342C8.69449 38.504 10.4639 37.8395 10.791 36.55Z" fill="#3F3D56"/>
<path d="M37.7035 55.4757C38.0307 54.1863 36.7916 52.7602 34.936 52.2904C33.0805 51.8207 31.311 52.4852 30.9839 53.7746C30.6568 55.0641 31.8958 56.4902 33.7514 56.9599C35.607 57.4296 37.3764 56.7651 37.7035 55.4757Z" fill="#FF6584"/>
<path d="M42.9858 62.5571C43.1202 61.3561 42.5511 60.3068 41.7147 60.2135C40.8783 60.1201 40.0913 61.018 39.957 62.219C39.8227 63.42 40.3918 64.4694 41.2282 64.5627C42.0646 64.6561 42.8515 63.7581 42.9858 62.5571Z" fill="#E6E6E6"/>
<path d="M44.8491 76.7416C44.9834 75.5406 44.4143 74.4913 43.5779 74.3979C42.7415 74.3046 41.9546 75.2025 41.8203 76.4035C41.6859 77.6045 42.255 78.6538 43.0914 78.7472C43.9278 78.8405 44.7148 77.9426 44.8491 76.7416Z" fill="#3F3D56"/>
<path d="M21.6824 49.7101C21.8167 48.5091 21.2476 47.4598 20.4112 47.3664C19.5748 47.2731 18.7879 48.171 18.6535 49.372C18.5192 50.573 19.0883 51.6223 19.9247 51.7157C20.7611 51.809 21.548 50.9111 21.6824 49.7101Z" fill="#E6E6E6"/>
<path d="M33.086 45.4307C33.2204 44.2297 32.6513 43.1804 31.8149 43.087C30.9785 42.9937 30.1916 43.8916 30.0572 45.0926C29.9229 46.2936 30.492 47.3429 31.3284 47.4362C32.1648 47.5296 32.9517 46.6317 33.086 45.4307Z" fill="#FF6584"/>
<path d="M19.0372 33.8689C19.1716 32.6679 18.6024 31.6186 17.7661 31.5252C16.9297 31.4319 16.1427 32.3298 16.0084 33.5308C15.874 34.7318 16.4432 35.7811 17.2796 35.8745C18.1159 35.9678 18.9029 35.0699 19.0372 33.8689Z" fill="#3F3D56"/>
<path d="M106.039 132.492C107.518 132.492 108.717 131.295 108.717 129.817C108.717 128.34 107.518 127.142 106.039 127.142C104.56 127.142 103.361 128.34 103.361 129.817C103.361 131.295 104.56 132.492 106.039 132.492Z" fill="white"/>
<path d="M40.4227 157.908C41.1623 157.908 41.7618 157.309 41.7618 156.57C41.7618 155.831 41.1623 155.233 40.4227 155.233C39.6832 155.233 39.0836 155.831 39.0836 156.57C39.0836 157.309 39.6832 157.908 40.4227 157.908Z" fill="white"/>
<path d="M306.235 257.564C306.975 257.564 307.574 256.965 307.574 256.226C307.574 255.487 306.975 254.888 306.235 254.888C305.496 254.888 304.896 255.487 304.896 256.226C304.896 256.965 305.496 257.564 306.235 257.564Z" fill="white"/>
<path d="M133.491 196.031C134.23 196.031 134.83 195.432 134.83 194.694C134.83 193.955 134.23 193.356 133.491 193.356C132.751 193.356 132.151 193.955 132.151 194.694C132.151 195.432 132.751 196.031 133.491 196.031Z" fill="white"/>
<path d="M157.594 56.2455C158.334 56.2455 158.934 55.6466 158.934 54.9079C158.934 54.1691 158.334 53.5702 157.594 53.5702C156.855 53.5702 156.255 54.1691 156.255 54.9079C156.255 55.6466 156.855 56.2455 157.594 56.2455Z" fill="white"/>
<path d="M376.538 107.746C377.278 107.746 377.877 107.147 377.877 106.408C377.877 105.669 377.278 105.07 376.538 105.07C375.799 105.07 375.199 105.669 375.199 106.408C375.199 107.147 375.799 107.746 376.538 107.746Z" fill="white"/>
<path d="M65.1962 38.1872C65.9357 38.1872 66.5353 37.5883 66.5353 36.8495C66.5353 36.1107 65.9357 35.5118 65.1962 35.5118C64.4566 35.5118 63.8571 36.1107 63.8571 36.8495C63.8571 37.5883 64.4566 38.1872 65.1962 38.1872Z" fill="white"/>
<path d="M308.913 31.4988C310.392 31.4988 311.592 30.3011 311.592 28.8235C311.592 27.346 310.392 26.1482 308.913 26.1482C307.434 26.1482 306.235 27.346 306.235 28.8235C306.235 30.3011 307.434 31.4988 308.913 31.4988Z" fill="white"/>
<path d="M428.761 384.31H427.422C427.422 376.592 420.184 369.041 405.903 361.864C391.929 354.842 371.896 348.528 346.373 343.104C342.597 342.301 338.733 341.525 334.783 340.776C314.348 336.897 291.644 333.72 267.326 331.305C262.297 330.804 257.197 330.338 252.026 329.908C250.352 329.76 248.665 329.627 246.971 329.486C242.264 329.118 237.508 328.775 232.703 328.456C207.622 326.798 181.288 325.895 154.332 325.801C152.745 325.788 151.151 325.788 149.558 325.788C114.453 325.788 106.526 329.098 106.057 331.881C104.859 338.917 145.46 353.049 184.723 366.727C228.184 381.856 272.849 397.413 288.062 410.662C288.577 411.11 289.059 411.559 289.508 412H287.667C287.178 411.559 286.649 411.11 286.086 410.662C270.024 397.848 224.97 382.157 184.281 367.984C134.105 350.514 103.419 339.412 104.731 331.653C105.301 328.296 110.911 324.45 149.558 324.45C150.823 324.45 152.096 324.45 153.361 324.457C180.31 324.53 206.644 325.413 231.752 327.058C236.66 327.373 241.519 327.721 246.328 328.102C248.116 328.242 249.897 328.383 251.671 328.537C256.974 328.978 262.208 329.455 267.372 329.968C292.333 332.442 315.614 335.72 336.49 339.739C339.945 340.408 343.333 341.095 346.654 341.799C399.602 353.049 428.761 368.145 428.761 384.31Z" fill="#E6E6E6"/>
<path d="M408.007 381.086H406.668C406.668 375.374 383.309 369.259 348.534 369.259C313.76 369.259 290.401 375.374 290.401 381.086H289.062C289.062 372.845 319.3 367.921 348.534 367.921C377.768 367.921 408.007 372.845 408.007 381.086Z" fill="#E6E6E6"/>
<path d="M384.642 384.976H383.303C383.303 381.75 369.104 378.155 348.729 378.155C328.355 378.155 314.156 381.75 314.156 384.976H312.817C312.817 379.677 331.32 376.818 348.729 376.818C366.139 376.818 384.642 379.677 384.642 384.976Z" fill="#E6E6E6"/>
<path d="M241.289 89.6872C256.08 89.6872 268.071 77.7093 268.071 62.9339C268.071 48.1585 256.08 36.1807 241.289 36.1807C226.497 36.1807 214.506 48.1585 214.506 62.9339C214.506 77.7093 226.497 89.6872 241.289 89.6872Z" fill="#F2F2F2"/>
<path d="M237.271 91.6936C252.063 91.6936 264.053 79.7158 264.053 64.9404C264.053 50.165 252.063 38.1871 237.271 38.1871C222.48 38.1871 210.489 50.165 210.489 64.9404C210.489 79.7158 222.48 91.6936 237.271 91.6936Z" fill="#F2F2F2"/>
<path d="M266.731 357.852L241.628 357.851V357.534C241.628 354.945 242.658 352.463 244.49 350.632C246.323 348.802 248.808 347.774 251.399 347.774L255.985 344.299L264.54 347.774L266.732 347.774L266.731 357.852Z" fill="#F2F2F2"/>
<path d="M255.045 344.308L233.598 357.339L233.433 357.068C232.086 354.856 231.674 352.201 232.288 349.686C232.901 347.171 234.489 345.002 236.703 343.657L238.813 338.308L247.931 336.836L249.803 335.698L255.045 344.308Z" fill="#F2F2F2"/>
<path d="M269.791 273.261C269.678 274.064 269.51 276.793 269.316 280.765C268.372 300.028 266.732 348.525 266.732 348.525L256.508 345.348C256.508 345.348 244.348 308.709 246.357 288.644L244.911 281.662L242.434 269.73V269.723L234.888 233.385C234.888 233.385 233.234 243.231 233.1 245.538C232.966 247.846 231.627 248.514 230.957 248.514C227.603 248.514 228.634 247.919 229.123 251.23C229.478 253.611 226.572 267.262 224.911 274.726C224.269 277.629 223.813 279.595 223.813 279.595L226.652 285.708L250.187 336.406L241.289 341.168L205.789 288.611L202.287 283.427L201.537 277.615L195.632 231.887C195.632 231.887 193.791 226.717 195.632 226.583C197.48 226.443 198.524 227.025 198.002 225.065C197.48 223.099 208.193 190.326 208.193 190.326L263.766 202.365C263.766 202.365 269.242 213.24 267.113 218.417C264.977 223.594 268.861 263.684 266.645 265.463C264.435 267.242 263.009 265.817 266.062 268.874C266.529 269.361 267.08 269.759 267.689 270.051C269.577 270.907 270.327 269.516 269.791 273.261Z" fill="#F2F2F2"/>
<path d="M237.097 81.6078C245.623 81.6078 252.534 74.7039 252.534 66.1875C252.534 57.671 245.623 50.7671 237.097 50.7671C228.572 50.7671 221.66 57.671 221.66 66.1875C221.66 74.7039 228.572 81.6078 237.097 81.6078Z" fill="#A0616A"/>
<path d="M249.127 79.468L243.007 80.6384C243.007 80.6384 248.698 71.462 248.364 67.2618C248.029 63.0615 243.449 61.5566 243.449 61.5566C243.449 61.5566 240.911 62.1051 238.24 62.4127C237.92 61.5128 237.505 60.6496 237.001 59.8378C236.902 60.8858 236.438 61.8659 235.689 62.6067C234.71 62.6907 233.724 62.577 232.79 62.2723C231.732 61.7907 231.752 60.9547 232.1 60.1722C228.652 60.4564 225.287 61.3795 222.177 62.8943C222.023 60.841 222.102 58.7768 222.412 56.7411C222.559 56.7009 222.706 56.6542 222.854 56.6073C223.766 56.3189 224.646 55.9356 225.478 55.4636C224.552 55.3408 223.686 54.9342 223.001 54.2998C223.563 52.6545 224.46 51.2299 225.873 50.5343C227.236 49.8684 228.727 49.5029 230.243 49.4625C231.76 49.4221 233.268 49.7078 234.664 50.3002C234.664 50.3002 231.39 47.9125 232.596 46.936C232.676 47.0163 232.756 47.0898 232.843 47.1634C232.957 47.257 233.084 47.3574 233.205 47.451C233.948 48.0529 235.06 47.2035 235.207 46.2939C235.223 46.179 235.245 46.0652 235.274 45.9528C235.294 45.8592 235.321 45.7655 235.347 45.6786C235.37 45.6014 235.397 45.5255 235.428 45.4512C237.657 44.9161 244.4 47.0898 246.991 51.8787C246.991 51.8787 265.102 60.5735 249.127 79.468Z" fill="#3F3D56"/>
<path d="M243.535 216.953C243.312 215.413 243.699 213.846 244.614 212.586C245.53 211.327 246.901 210.474 248.436 210.209C248.749 210.16 249.066 210.137 249.383 210.14L265.524 172.698L276.596 181.002L255.038 216.473C254.923 217.784 254.376 219.02 253.484 219.988C252.592 220.956 251.404 221.602 250.106 221.825C249.366 221.945 248.609 221.918 247.88 221.746C247.15 221.573 246.462 221.259 245.854 220.821C245.246 220.383 244.73 219.83 244.336 219.193C243.942 218.556 243.678 217.847 243.558 217.108C243.549 217.056 243.542 217.005 243.535 216.953Z" fill="#6C63FF"/>
<path d="M198.319 220.005C199.405 218.889 200.013 217.394 200.012 215.837C200.011 214.281 199.403 212.786 198.316 211.671C198.091 211.448 197.848 211.244 197.59 211.06L206.532 171.285L192.688 171.512L189.29 212.87C188.613 213.998 188.328 215.319 188.482 216.626C188.635 217.933 189.217 219.153 190.137 220.095C190.665 220.626 191.293 221.048 191.985 221.336C192.677 221.625 193.419 221.774 194.169 221.776C194.918 221.778 195.661 221.633 196.354 221.348C197.048 221.063 197.678 220.645 198.21 220.117C198.247 220.08 198.283 220.043 198.319 220.005Z" fill="#6C63FF"/>
<path d="M287.535 153.42C285.526 156.095 282.848 153.079 285.526 156.931C287.367 159.58 276.815 184.407 270.059 199.616C267.006 206.498 264.723 211.414 264.723 211.414L253.334 204.826L252.001 204.057C252.001 204.057 262.446 177.799 265.808 168.362C266.363 166.797 266.732 165.693 266.819 165.252C267.448 162.115 267.528 159.426 266.819 158.43C266.651 158.058 266.508 157.676 266.39 157.286C265.044 153.346 260.947 140.043 257.11 127.463C255.992 123.771 254.887 120.146 253.883 116.835C251.305 108.334 249.37 101.92 249.37 101.92L264.77 102.589C264.77 102.589 265.024 103.017 265.473 103.793C266.544 105.639 268.74 109.444 271.285 114.019C273.119 117.31 275.141 121.008 277.049 124.647C281.91 133.904 286.095 142.819 284.856 144.056C282.178 146.732 279.44 145.213 282.814 148.645C286.196 152.082 289.543 150.745 287.535 153.42Z" fill="#F2F2F2"/>
<path d="M269.12 188.989C265.102 185.016 265.846 166.911 265.846 166.911C265.846 166.911 269.843 106.114 264.433 102.041C260.692 99.3441 256.712 96.9956 252.542 95.025C252.301 94.918 252.173 94.8578 252.173 94.8578L248.719 85.1263L227.433 84.0227L223.717 91.2327C223.717 91.2327 223.135 91.2728 222.224 91.3999C218.823 91.8681 210.829 93.5268 211.538 98.6969C212.435 105.251 206.101 145.508 204.173 147.522C202.245 149.535 202.754 156.892 207.521 161.567C212.288 166.242 208.86 178.957 205.512 184.307C203.503 187.582 202.576 191.405 202.861 195.236C202.861 195.236 205.512 209.723 212.208 205.041C214.759 203.255 218.381 203.028 222.74 203.356C222.782 203.359 222.828 203.364 222.871 203.368L222.74 204.024C228.793 204.473 236.272 205.991 244.273 205.904L244.036 205.232C244.115 205.231 244.193 205.236 244.273 205.235C245.625 205.222 246.984 205.161 248.364 205.041C260.295 204.004 265.564 207.282 267.111 203.703C268.658 200.125 273.137 192.962 269.12 188.989Z" fill="#F2F2F2"/>
<path opacity="0.3" d="M237.271 85.0054C248.365 85.0054 257.358 76.022 257.358 64.9404C257.358 53.8589 248.365 44.8755 237.271 44.8755C226.178 44.8755 217.185 53.8589 217.185 64.9404C217.185 76.022 226.178 85.0054 237.271 85.0054Z" fill="#6C63FF"/>
<path d="M227.61 95.2317C227.61 95.2317 224.556 105.358 221.001 117.042C219.883 120.721 218.711 124.553 217.573 128.279C213.857 140.391 210.469 151.307 210.154 151.741C209.445 152.738 209.532 155.427 210.154 158.563C210.282 159.192 209.994 161.64 209.451 165.151C208.742 169.76 207.597 176.194 206.378 182.762C205.407 188.012 204.39 193.343 203.512 197.884C202.14 204.933 201.115 210.077 201.115 210.077H188.394C188.394 210.077 190.784 156.764 193.462 152.918C196.141 149.066 193.462 152.082 191.454 149.407C189.445 146.732 192.793 148.069 196.167 144.632C199.542 141.201 196.81 142.719 194.132 140.043C193.141 139.054 195.357 132.746 198.544 125.195C200.031 121.691 201.725 117.912 203.399 114.273C206.86 106.762 210.255 99.8534 211.601 97.1246C211.601 97.1179 211.607 97.1112 211.607 97.1045L212.21 95.9006L227.61 95.2317Z" fill="#F2F2F2"/>
<path d="M255.349 97.7132C241.37 103.137 228.801 104.072 218.524 97.7132V85.6742C230.627 92.9286 242.907 92.7303 255.349 85.6742V97.7132Z" fill="#3F3D56"/>
<path d="M266.062 174.629C244.457 180.053 225.032 180.988 209.15 174.629V162.59C227.855 169.844 246.833 169.646 266.062 162.59V174.629Z" fill="#3F3D56"/>
<path d="M269.791 273.261C269.678 274.064 269.51 276.793 269.316 280.765C261.249 282.071 253.052 282.372 244.911 281.662L242.433 269.73C250.774 271.251 259.312 271.36 267.689 270.051C269.577 270.907 270.327 269.516 269.791 273.261Z" fill="#3F3D56"/>
<path d="M226.652 285.708C219.787 287.234 212.81 288.205 205.789 288.611L202.287 283.427L201.537 277.615C209.429 277.818 217.307 276.845 224.911 274.726C224.269 277.629 223.813 279.595 223.813 279.595L226.652 285.708Z" fill="#3F3D56"/>
<path d="M228.567 123.129C228.567 124.903 227.862 126.604 226.606 127.858C225.35 129.112 223.647 129.817 221.872 129.817C220.096 129.817 218.393 129.112 217.137 127.858C215.881 126.604 215.176 124.903 215.176 123.129C215.176 119.435 221.202 111.759 221.872 116.44C222.541 121.122 228.567 119.435 228.567 123.129Z" fill="#6C63FF"/>
<path d="M222.6 111.788C222.358 111.768 222.117 111.762 221.87 111.762C218.955 111.765 216.152 112.884 214.038 114.888C211.923 116.892 210.657 119.629 210.501 122.537C210.494 122.731 210.487 122.931 210.487 123.132C210.487 123.406 210.494 123.674 210.521 123.941C210.689 126.322 211.604 128.589 213.135 130.422C214.666 132.254 216.736 133.558 219.051 134.149C221.366 134.739 223.809 134.587 226.032 133.712C228.256 132.838 230.147 131.287 231.438 129.278C231.697 128.882 231.93 128.469 232.134 128.041C232.939 126.364 233.319 124.515 233.242 122.657C233.165 120.799 232.632 118.988 231.691 117.383C230.75 115.779 229.429 114.43 227.843 113.454C226.258 112.479 224.458 111.907 222.6 111.788ZM230.46 129.084C229.41 130.346 228.098 131.364 226.614 132.069C225.131 132.773 223.512 133.147 221.87 133.164C219.424 133.161 217.064 132.267 215.23 130.651C213.396 129.034 212.215 126.806 211.907 124.383C211.853 123.968 211.826 123.55 211.826 123.132C211.825 123.074 211.828 123.016 211.833 122.958C211.879 120.329 212.956 117.823 214.834 115.979C216.711 114.135 219.237 113.101 221.87 113.099C221.93 113.26 221.99 113.414 222.057 113.561C224.916 120.316 231.116 119.808 231.913 123.132C232.298 124.739 232.064 126.432 231.257 127.874C231.03 128.301 230.763 128.707 230.46 129.084Z" fill="#6C63FF"/>
</svg>
